<svg width="100" height="21" fill="none" xmlns="http://www.w3.org/2000/svg"><path d="m12.66.88-4.78 9.18V15H5.04v-4.94L.24.88h3.24l3 6.18 3-6.18h3.18Zm6.63 2.9c1.08 0 2.047.227 2.9.68a4.944 4.944 0 0 1 2.04 1.98c.494.853.74 1.86.74 3.02s-.246 2.167-.74 3.02a5.113 5.113 0 0 1-2.04 1.98c-.853.453-1.82.68-2.9.68-1.08 0-2.053-.227-2.92-.68a5.15 5.15 0 0 1-2.02-1.98c-.493-.853-.74-1.86-.74-3.02s.247-2.167.74-3.02a4.977 4.977 0 0 1 2.02-1.98c.867-.453 1.84-.68 2.92-.68Zm0 2.44c-.786 0-1.453.28-2 .84-.546.547-.82 1.347-.82 2.4s.274 1.86.82 2.42c.547.547 1.214.82 2 .82.787 0 1.454-.273 2-.82.547-.56.82-1.367.82-2.42s-.273-1.853-.82-2.4a2.689 2.689 0 0 0-2-.84Zm18.274-2.3V15h-2.82v-2.24a3.567 3.567 0 0 1-1.46 1.76c-.667.413-1.44.62-2.32.62-1.28 0-2.3-.42-3.06-1.26-.76-.84-1.14-2.013-1.14-3.52V3.92h2.8v6.12c0 .88.226 1.567.68 2.06.453.48 1.066.72 1.84.72.813 0 1.46-.26 1.94-.78s.72-1.267.72-2.24V3.92h2.82Zm5.384 2.12c.413-.707.96-1.26 1.64-1.66.68-.413 1.44-.62 2.28-.62v3.02h-.82c-2.067 0-3.1.96-3.1 2.88V15h-2.82V3.92h2.82v2.12Zm12.656 6.8h4.74V15h-7.56V.88h2.82v11.96Zm11.538-9.06c1.08 0 2.047.227 2.9.68a4.944 4.944 0 0 1 2.04 1.98c.494.853.74 1.86.74 3.02s-.246 2.167-.74 3.02a5.113 5.113 0 0 1-2.04 1.98c-.853.453-1.82.68-2.9.68-1.08 0-2.053-.227-2.92-.68a5.15 5.15 0 0 1-2.02-1.98c-.493-.853-.74-1.86-.74-3.02s.247-2.167.74-3.02a4.976 4.976 0 0 1 2.02-1.98c.867-.453 1.84-.68 2.92-.68Zm0 2.44c-.786 0-1.453.28-2 .84-.546.547-.82 1.347-.82 2.4s.273 1.86.82 2.42c.547.547 1.214.82 2 .82.787 0 1.454-.273 2-.82.547-.56.82-1.367.82-2.42s-.273-1.853-.82-2.4a2.689 2.689 0 0 0-2-.84Zm12.013-2.44c.933 0 1.733.22 2.4.66a3.595 3.595 0 0 1 1.42 1.78v-2.3h2.8v11.12c0 1.027-.207 1.947-.62 2.76a4.409 4.409 0 0 1-1.82 1.94c-.8.467-1.773.7-2.92.7-1.6 0-2.893-.38-3.88-1.14-.986-.76-1.587-1.793-1.8-3.1h2.78c.16.56.467.993.92 1.3.467.32 1.06.48 1.78.48.827 0 1.493-.247 2-.74.507-.48.76-1.213.76-2.2v-2.36a3.702 3.702 0 0 1-1.42 1.8c-.667.44-1.467.66-2.4.66-.933 0-1.773-.227-2.52-.68-.747-.453-1.333-1.107-1.76-1.96-.413-.867-.62-1.88-.62-3.04 0-1.16.207-2.167.62-3.02.427-.867 1.013-1.527 1.76-1.98.747-.453 1.587-.68 2.52-.68Zm.88 2.46c-.88 0-1.587.287-2.12.86-.533.573-.8 1.36-.8 2.36 0 1 .267 1.787.8 2.36.533.56 1.24.84 2.12.84.853 0 1.553-.287 2.1-.86.56-.587.84-1.367.84-2.34 0-.987-.28-1.767-.84-2.34-.547-.587-1.247-.88-2.1-.88Zm13.416-2.46c1.08 0 2.046.227 2.9.68a4.945 4.945 0 0 1 2.04 1.98c.493.853.74 1.86.74 3.02s-.247 2.167-.74 3.02a5.114 5.114 0 0 1-2.04 1.98c-.854.453-1.82.68-2.9.68-1.08 0-2.054-.227-2.92-.68a5.148 5.148 0 0 1-2.02-1.98c-.494-.853-.74-1.86-.74-3.02s.246-2.167.74-3.02a4.976 4.976 0 0 1 2.02-1.98c.866-.453 1.84-.68 2.92-.68Zm0 2.44c-.787 0-1.454.28-2 .84-.547.547-.82 1.347-.82 2.4s.273 1.86.82 2.42c.546.547 1.213.82 2 .82.786 0 1.453-.273 2-.82.546-.56.82-1.367.82-2.42s-.274-1.853-.82-2.4a2.689 2.689 0 0 0-2-.84Z" fill="#000"/></svg>